<?xml version="1.0" encoding="UTF-8"?>
<!DOCTYPE svg PUBLIC "-//W3C//DTD SVG 1.1//EN" "http://www.w3.org/Graphics/SVG/1.1/DTD/svg11.dtd">
<!-- Creator: CorelDRAW X7 -->
<svg xmlns="http://www.w3.org/2000/svg" xml:space="preserve" width="902px" height="245px" version="1.1" style="shape-rendering:geometricPrecision; text-rendering:geometricPrecision; image-rendering:optimizeQuality; fill-rule:evenodd; clip-rule:evenodd"
viewBox="0 0 845 229"
 xmlns:xlink="http://www.w3.org/1999/xlink">
 <defs>
  <style type="text/css">
   <![CDATA[
    .str0 {stroke:black;stroke-width:0.708296}
    .fil0 {fill:black}
    .fil1 {fill:white}
   ]]>
  </style>
 </defs>
 <g id="Capa_x0020_1">
  <metadata id="CorelCorpID_0Corel-Layer"/>
  <g id="_290958816">
   <path class="fil0 str0" d="M30 0c261,4 522,17 782,11 17,0 33,3 33,20l-1 172c0,17 -11,17 -27,17l-787 9c-16,0 -30,-14 -30,-30l0 -169c0,-16 14,-30 30,-30z"/>
   <path class="fil1 str0" d="M38 11c256,3 511,15 766,10 17,0 30,12 30,27l2 147c0,15 -11,15 -27,15l-771 8c-16,0 -29,-12 -29,-27l0 -153c0,-15 13,-27 29,-27z"/>
  </g>
 </g>
</svg>
