<?xml version="1.0" encoding="UTF-8"?>
<!DOCTYPE svg PUBLIC "-//W3C//DTD SVG 1.1//EN" "http://www.w3.org/Graphics/SVG/1.1/DTD/svg11.dtd">
<!-- Creator: CorelDRAW X7 -->
<svg xmlns="http://www.w3.org/2000/svg" xml:space="preserve" width="191px" height="224px" version="1.1" style="shape-rendering:geometricPrecision; text-rendering:geometricPrecision; image-rendering:optimizeQuality; fill-rule:evenodd; clip-rule:evenodd"
viewBox="0 0 43 51"
 xmlns:xlink="http://www.w3.org/1999/xlink">
 <defs>
  <style type="text/css">
   <![CDATA[
    .str0 {stroke:black;stroke-width:0.172219}
    .fil0 {fill:black}
    .fil1 {fill:white}
   ]]>
  </style>
 </defs>
 <g id="Capa_x0020_1">
  <metadata id="CorelCorpID_0Corel-Layer"/>
  <g id="_239691688">
   <path class="fil0 str0" d="M2 0c13,1 26,4 40,3 1,-1 1,3 1,6l0 36c0,4 0,4 -1,4l-40 2c-1,0 -2,-3 -2,-7l0 -37c0,-4 1,-7 2,-7z"/>
   <path class="fil1 str0" d="M3 2c12,1 25,4 37,3 1,0 1,2 1,6l1 32c0,4 -1,4 -2,4l-37 1c-1,0 -1,-2 -1,-6l0 -34c0,-3 0,-6 1,-6z"/>
   <path class="fil0" d="M21 39c-1,-9 -3,-16 -7,-23 6,0 12,0 18,1 -4,6 -8,13 -11,22z"/>
  </g>
 </g>
</svg>
