<?xml version="1.0" encoding="UTF-8"?>
<!DOCTYPE svg PUBLIC "-//W3C//DTD SVG 1.1//EN" "http://www.w3.org/Graphics/SVG/1.1/DTD/svg11.dtd">
<!-- Creator: CorelDRAW X7 -->
<svg xmlns="http://www.w3.org/2000/svg" xml:space="preserve" width="901px" height="245px" version="1.1" style="shape-rendering:geometricPrecision; text-rendering:geometricPrecision; image-rendering:optimizeQuality; fill-rule:evenodd; clip-rule:evenodd"
viewBox="0 0 927 252"
 xmlns:xlink="http://www.w3.org/1999/xlink">
 <defs>
  <style type="text/css">
   <![CDATA[
    .str0 {stroke:black;stroke-width:0.777122}
    .fil0 {fill:black}
    .fil1 {fill:white}
   ]]>
  </style>
 </defs>
 <g id="Capa_x0020_1">
  <metadata id="CorelCorpID_0Corel-Layer"/>
  <g id="_416661480">
   <path class="fil0 str0" d="M33 0c286,4 573,19 858,12 18,0 33,15 33,33l2 178c0,18 -12,19 -30,19l-863 9c-18,0 -33,-15 -33,-33l0 -185c0,-18 15,-33 33,-33z"/>
   <path class="fil1 str0" d="M42 12c280,4 561,17 841,11 17,0 32,14 32,30l2 161c0,16 -12,17 -29,17l-846 8c-18,1 -32,-13 -32,-29l0 -168c0,-16 14,-30 32,-30z"/>
  </g>
 </g>
</svg>
